<?xml version="1.0" standalone="no"?>
<!DOCTYPE svg PUBLIC "-//W3C//DTD SVG 20010904//EN"
 "http://www.w3.org/TR/2001/REC-SVG-20010904/DTD/svg10.dtd">
<svg version="1.0" xmlns="http://www.w3.org/2000/svg"
 width="889.000000pt" height="889.000000pt" viewBox="0 0 889.000000 889.000000"
 preserveAspectRatio="xMidYMid meet">
<metadata>
Created by potrace 1.14, written by Peter Selinger 2001-2017
</metadata>
<g transform="translate(0.000000,889.000000) scale(0.100000,-0.100000)"
fill="#000000" stroke="none">
<path d="M4155 7264 c-473 -49 -834 -149 -1210 -337 -899 -449 -1556 -1302
-1749 -2273 -52 -261 -60 -351 -60 -644 -1 -243 2 -290 22 -403 56 -309 140
-495 297 -652 144 -145 287 -205 486 -205 113 0 200 16 320 60 348 126 735
504 1021 999 28 47 99 183 158 302 60 119 134 258 165 310 328 542 789 938
1287 1104 313 104 611 106 769 4 70 -45 211 -196 339 -364 137 -179 204 -260
279 -338 68 -71 196 -173 270 -215 53 -30 54 -31 30 -40 -59 -23 -214 -94
-310 -142 -646 -324 -1013 -711 -1080 -1140 -16 -101 -6 -319 21 -449 39 -191
77 -295 233 -632 144 -311 177 -421 177 -592 0 -119 -27 -230 -88 -360 l-45
-97 -152 -49 c-759 -246 -1587 -180 -2300 184 -270 138 -506 308 -729 525
-155 151 -340 371 -382 453 -33 63 -72 81 -231 101 -67 9 -129 19 -138 22 -16
6 -16 5 0 -26 103 -200 327 -492 535 -700 512 -512 1166 -836 1890 -935 161
-22 523 -30 695 -16 891 75 1684 487 2261 1176 345 412 589 926 693 1458 48
246 56 338 56 642 -1 292 -11 403 -56 635 -150 765 -595 1484 -1209 1954 -474
363 -990 579 -1582 661 -108 16 -589 29 -683 19z m481 -254 c256 -21 465 -62
698 -137 781 -251 1427 -808 1786 -1538 223 -453 314 -845 314 -1350 -1 -479
-90 -878 -294 -1302 -260 -543 -660 -980 -1184 -1297 -60 -36 -111 -65 -113
-63 -1 2 6 44 17 93 24 111 26 283 4 392 -13 65 -63 224 -88 283 -6 14 4 17
71 22 149 11 244 62 318 172 104 154 119 369 47 655 -34 135 -65 216 -137 361
-117 234 -130 387 -54 627 l30 93 62 40 c180 116 602 304 892 397 77 25 142
46 143 48 10 7 -31 116 -58 152 -40 56 -82 81 -235 145 -287 118 -447 248
-680 552 -54 72 -153 184 -220 251 -102 102 -133 127 -204 162 -74 37 -104 62
-255 210 -473 461 -819 743 -1040 848 -248 117 -455 97 -543 -54 -24 -40 -28
-57 -27 -122 1 -85 20 -137 78 -213 l36 -48 -52 8 c-98 14 -377 8 -451 -10
-147 -37 -217 -102 -217 -206 0 -89 75 -179 277 -331 l103 -78 -252 2 c-289 1
-338 -7 -408 -70 -52 -47 -64 -87 -58 -193 16 -270 202 -508 526 -670 l82 -41
-68 -103 c-98 -145 -168 -269 -286 -506 -125 -250 -213 -399 -327 -551 -256
-343 -525 -555 -789 -621 -350 -89 -598 151 -677 655 -27 168 -24 542 6 736
65 427 193 788 402 1135 439 729 1149 1235 1979 1409 271 57 577 77 846 56z
m-246 -432 c148 -82 368 -259 712 -576 81 -75 146 -137 145 -139 -2 -1 -51 -9
-110 -18 -445 -62 -872 -289 -1271 -675 l-119 -115 44 64 c57 83 262 296 364
378 177 142 371 254 541 311 99 33 296 78 389 88 l59 6 -84 81 c-240 231 -545
488 -700 590 -80 52 -62 55 30 5z m1332 -2894 c-4 -73 -5 -78 -59 -157 -105
-153 -143 -274 -143 -452 0 -189 47 -391 141 -609 l38 -88 -27 7 c-35 8 -32 4
-81 117 -91 212 -134 366 -151 544 -20 219 26 388 155 562 37 51 123 152 129
152 0 0 0 -34 -2 -76z"/>
<path d="M5159 4849 c-50 -29 -69 -66 -69 -132 0 -46 5 -61 27 -88 51 -60 127
-75 193 -38 134 75 79 280 -75 279 -22 0 -56 -10 -76 -21z"/>
</g>
</svg>
